<svg width="33" height="32" viewBox="0 0 33 32" fill="none" xmlns="http://www.w3.org/2000/svg">
<rect x="1.16663" y="0.5" width="31" height="31" rx="15.5" fill="#2C3444"/>
<path d="M16.6808 22.1591C15.9005 22.1591 15.2036 22.0246 14.5899 21.7557C13.9801 21.4867 13.4971 21.1136 13.1411 20.6364C12.7888 20.1553 12.5994 19.5985 12.5729 18.9659L14.357 18.9659C14.3797 19.3106 14.4952 19.6098 14.7036 19.8636C14.9157 20.1136 15.1922 20.3068 15.5331 20.4432C15.874 20.5795 16.2528 20.6477 16.6695 20.6477C17.1278 20.6477 17.5331 20.5682 17.8854 20.4091C18.2414 20.25 18.5198 20.0284 18.7206 19.7443C18.9214 19.4564 19.0217 19.125 19.0217 18.75C19.0217 18.3598 18.9214 18.017 18.7206 17.7216C18.5236 17.4223 18.2339 17.1875 17.8513 17.017C17.4725 16.8466 17.0142 16.7614 16.4763 16.7614H15.4933L15.4933 15.3295L16.4763 15.3295C16.9081 15.3295 17.2869 15.2519 17.6126 15.0966C17.9422 14.9413 18.1998 14.7254 18.3854 14.4489C18.571 14.1686 18.6638 13.8409 18.6638 13.4659C18.6638 13.1061 18.5823 12.7936 18.4195 12.5284C18.2604 12.2595 18.0331 12.0492 17.7376 11.8977C17.446 11.7462 17.1013 11.6705 16.7036 11.6705C16.3248 11.6705 15.9706 11.7405 15.6411 11.8807C15.3153 12.017 15.0501 12.214 14.8456 12.4716C14.6411 12.7254 14.5312 13.0303 14.5161 13.3864L12.8172 13.3864C12.8361 12.7576 13.0217 12.2045 13.374 11.7273C13.7301 11.25 14.1998 10.8769 14.7831 10.608C15.3664 10.339 16.0142 10.2045 16.7263 10.2045C17.4725 10.2045 18.1164 10.3504 18.6581 10.642C19.2036 10.9299 19.624 11.3144 19.9195 11.7955C20.2187 12.2765 20.3664 12.803 20.3626 13.375C20.3664 14.0265 20.1846 14.5795 19.8172 15.0341C19.4536 15.4886 18.9687 15.7936 18.3626 15.9489V16.0398C19.1354 16.1572 19.7339 16.464 20.1581 16.9602C20.5861 17.4564 20.7983 18.072 20.7945 18.8068C20.7983 19.447 20.6202 20.0208 20.2604 20.5284C19.9043 21.036 19.4176 21.4356 18.8001 21.7273C18.1827 22.0152 17.4763 22.1591 16.6808 22.1591Z" fill="#A5ACBA"/>
<rect x="1.16663" y="0.5" width="31" height="31" rx="15.5" stroke="#2E3545"/>
</svg>
