<svg width="33" height="32" viewBox="0 0 33 32" fill="none" xmlns="http://www.w3.org/2000/svg">
<rect x="0.833313" y="0.5" width="31" height="31" rx="15.5" fill="#333B48"/>
<path d="M12.5464 22L12.5464 20.7273L16.4839 16.6477C16.9043 16.2045 17.2509 15.8163 17.5237 15.483C17.8002 15.1458 18.0066 14.8258 18.143 14.5227C18.2793 14.2197 18.3475 13.8977 18.3475 13.5568C18.3475 13.1705 18.2566 12.8371 18.0748 12.5568C17.893 12.2727 17.6449 12.0549 17.3305 11.9034C17.0161 11.7481 16.6619 11.6705 16.268 11.6705C15.8513 11.6705 15.4877 11.7557 15.1771 11.9261C14.8665 12.0966 14.6278 12.3371 14.4612 12.6477C14.2945 12.9583 14.2112 13.322 14.2112 13.7386L12.535 13.7386C12.535 13.0303 12.6979 12.411 13.0237 11.8807C13.3494 11.3504 13.7964 10.9394 14.3646 10.6477C14.9327 10.3523 15.5786 10.2045 16.3021 10.2045C17.0331 10.2045 17.6771 10.3504 18.2339 10.642C18.7945 10.9299 19.232 11.3239 19.5464 11.8239C19.8608 12.3201 20.018 12.8807 20.018 13.5057C20.018 13.9375 19.9365 14.3598 19.7737 14.7727C19.6146 15.1856 19.3362 15.6458 18.9384 16.1534C18.5407 16.6572 17.9877 17.2689 17.2793 17.9886L14.9668 20.4091V20.4943L20.2055 20.4943V22L12.5464 22Z" fill="#F9F9F9"/>
<rect x="0.833313" y="0.5" width="31" height="31" rx="15.5" stroke="#437EF7"/>
</svg>
